<mxfile host="app.diagrams.net" agent="Mozilla/5.0 (Macintosh; Intel Mac OS X 10_15_7) AppleWebKit/537.36 (KHTML, like Gecko) Chrome/134.0.0.0 Safari/537.36" version="26.1.0">
  <diagram name="Страница — 1" id="nc_g5C7sCWomOyvMDTg2">
    <mxGraphModel dx="1506" dy="2045" grid="1" gridSize="10" guides="1" tooltips="1" connect="1" arrows="1" fold="1" page="1" pageScale="1" pageWidth="827" pageHeight="1169" math="0" shadow="0">
      <root>
        <mxCell id="0" />
        <mxCell id="1" parent="0" />
        <mxCell id="5ZHukqqLrb58eQnSWOvj-1" value="BP008.&amp;nbsp;Развитие сети и управление франшизой. Руководитель" style="swimlane;childLayout=stackLayout;resizeParent=1;resizeParentMax=0;horizontal=1;startSize=20;horizontalStack=0;html=1;" vertex="1" parent="1">
          <mxGeometry x="140" y="60" width="1130" height="390" as="geometry">
            <mxRectangle x="150" y="40" width="60" height="30" as="alternateBounds" />
          </mxGeometry>
        </mxCell>
        <mxCell id="5ZHukqqLrb58eQnSWOvj-2" value="Руководитель" style="swimlane;startSize=20;horizontal=0;html=1;" vertex="1" parent="5ZHukqqLrb58eQnSWOvj-1">
          <mxGeometry y="20" width="1130" height="200" as="geometry" />
        </mxCell>
        <mxCell id="5ZHukqqLrb58eQnSWOvj-155" value="" style="points=[[0.145,0.145,0],[0.5,0,0],[0.855,0.145,0],[1,0.5,0],[0.855,0.855,0],[0.5,1,0],[0.145,0.855,0],[0,0.5,0]];shape=mxgraph.bpmn.event;html=1;verticalLabelPosition=bottom;labelBackgroundColor=#ffffff;verticalAlign=top;align=center;perimeter=ellipsePerimeter;outlineConnect=0;aspect=fixed;outline=end;symbol=terminate2;fillColor=light-dark(#FF9999,var(--ge-dark-color, #121212));" vertex="1" parent="5ZHukqqLrb58eQnSWOvj-2">
          <mxGeometry x="1053.75" y="90" width="35" height="35" as="geometry" />
        </mxCell>
        <mxCell id="5ZHukqqLrb58eQnSWOvj-164" value="&lt;span style=&quot;font-size: 10px;&quot;&gt;Новая точка открыта, партнеры обучены&lt;/span&gt;" style="text;html=1;align=center;verticalAlign=middle;whiteSpace=wrap;rounded=0;" vertex="1" parent="5ZHukqqLrb58eQnSWOvj-2">
          <mxGeometry x="1020" y="142.5" width="102.5" height="30" as="geometry" />
        </mxCell>
        <mxCell id="5ZHukqqLrb58eQnSWOvj-323" value="" style="edgeStyle=elbowEdgeStyle;fontSize=12;html=1;endFill=0;startFill=0;endSize=6;startSize=6;dashed=1;dashPattern=1 4;endArrow=none;startArrow=none;rounded=0;" edge="1" parent="5ZHukqqLrb58eQnSWOvj-2">
          <mxGeometry width="160" relative="1" as="geometry">
            <mxPoint x="154" y="30" as="sourcePoint" />
            <mxPoint x="204" y="30" as="targetPoint" />
          </mxGeometry>
        </mxCell>
        <mxCell id="5ZHukqqLrb58eQnSWOvj-324" value="&lt;font style=&quot;font-size: 10px;&quot;&gt;Отчёты&lt;/font&gt;" style="shape=mxgraph.bpmn.data2;labelPosition=center;verticalLabelPosition=bottom;align=center;verticalAlign=top;size=5;html=1;" vertex="1" parent="5ZHukqqLrb58eQnSWOvj-2">
          <mxGeometry x="134" y="10" width="20" height="30" as="geometry" />
        </mxCell>
        <mxCell id="5ZHukqqLrb58eQnSWOvj-328" value="&lt;font style=&quot;font-size: 10px;&quot;&gt;Заключение договора&lt;/font&gt;" style="points=[[0.25,0,0],[0.5,0,0],[0.75,0,0],[1,0.25,0],[1,0.5,0],[1,0.75,0],[0.75,1,0],[0.5,1,0],[0.25,1,0],[0,0.75,0],[0,0.5,0],[0,0.25,0]];shape=mxgraph.bpmn.task2;whiteSpace=wrap;rectStyle=rounded;size=10;html=1;container=1;expand=0;collapsible=0;taskMarker=user;spacingBottom=-7;" vertex="1" parent="5ZHukqqLrb58eQnSWOvj-2">
          <mxGeometry x="500" y="82.5" width="100" height="60" as="geometry" />
        </mxCell>
        <mxCell id="5ZHukqqLrb58eQnSWOvj-358" value="" style="points=[[0.145,0.145,0],[0.5,0,0],[0.855,0.145,0],[1,0.5,0],[0.855,0.855,0],[0.5,1,0],[0.145,0.855,0],[0,0.5,0]];shape=mxgraph.bpmn.event;html=1;verticalLabelPosition=bottom;labelBackgroundColor=#ffffff;verticalAlign=top;align=center;perimeter=ellipsePerimeter;outlineConnect=0;aspect=fixed;outline=eventInt;symbol=error;fillColor=light-dark(#FFCC99,var(--ge-dark-color, #121212));" vertex="1" parent="5ZHukqqLrb58eQnSWOvj-328">
          <mxGeometry x="60" y="47.5" width="30" height="30" as="geometry" />
        </mxCell>
        <mxCell id="5ZHukqqLrb58eQnSWOvj-338" value="" style="points=[[0.25,0.25,0],[0.5,0,0],[0.75,0.25,0],[1,0.5,0],[0.75,0.75,0],[0.5,1,0],[0.25,0.75,0],[0,0.5,0]];shape=mxgraph.bpmn.gateway2;html=1;verticalLabelPosition=bottom;labelBackgroundColor=#ffffff;verticalAlign=top;align=center;perimeter=rhombusPerimeter;outlineConnect=0;outline=none;symbol=none;fillColor=light-dark(#FFFFCC,var(--ge-dark-color, #121212));" vertex="1" parent="5ZHukqqLrb58eQnSWOvj-2">
          <mxGeometry x="310" y="105.87" width="40" height="40" as="geometry" />
        </mxCell>
        <mxCell id="5ZHukqqLrb58eQnSWOvj-339" value="&lt;font style=&quot;font-size: 9px;&quot;&gt;Локация и регион подходят?&lt;/font&gt;" style="text;html=1;align=center;verticalAlign=middle;whiteSpace=wrap;rounded=0;" vertex="1" parent="5ZHukqqLrb58eQnSWOvj-2">
          <mxGeometry x="350" y="113.37" width="60" height="25" as="geometry" />
        </mxCell>
        <mxCell id="5ZHukqqLrb58eQnSWOvj-336" value="&lt;font style=&quot;font-size: 10px;&quot;&gt;Прием и&amp;nbsp;&lt;/font&gt;&lt;div&gt;&lt;font style=&quot;font-size: 10px;&quot;&gt;рассмотрение заявки&lt;/font&gt;&lt;/div&gt;" style="points=[[0.25,0,0],[0.5,0,0],[0.75,0,0],[1,0.25,0],[1,0.5,0],[1,0.75,0],[0.75,1,0],[0.5,1,0],[0.25,1,0],[0,0.75,0],[0,0.5,0],[0,0.25,0]];shape=mxgraph.bpmn.task2;whiteSpace=wrap;rectStyle=rounded;size=10;html=1;container=1;expand=0;collapsible=0;taskMarker=user;" vertex="1" parent="5ZHukqqLrb58eQnSWOvj-2">
          <mxGeometry x="270" y="15" width="120" height="60" as="geometry" />
        </mxCell>
        <mxCell id="5ZHukqqLrb58eQnSWOvj-354" value="да" style="edgeStyle=orthogonalEdgeStyle;rounded=0;orthogonalLoop=1;jettySize=auto;html=1;exitX=0.5;exitY=0;exitDx=0;exitDy=0;exitPerimeter=0;entryX=0.5;entryY=1;entryDx=0;entryDy=0;entryPerimeter=0;" edge="1" parent="5ZHukqqLrb58eQnSWOvj-2" source="5ZHukqqLrb58eQnSWOvj-338" target="5ZHukqqLrb58eQnSWOvj-336">
          <mxGeometry relative="1" as="geometry" />
        </mxCell>
        <mxCell id="5ZHukqqLrb58eQnSWOvj-356" style="edgeStyle=orthogonalEdgeStyle;rounded=0;orthogonalLoop=1;jettySize=auto;html=1;exitX=1;exitY=0.5;exitDx=0;exitDy=0;exitPerimeter=0;entryX=0;entryY=0.5;entryDx=0;entryDy=0;entryPerimeter=0;" edge="1" parent="5ZHukqqLrb58eQnSWOvj-2" source="5ZHukqqLrb58eQnSWOvj-336" target="5ZHukqqLrb58eQnSWOvj-328">
          <mxGeometry relative="1" as="geometry" />
        </mxCell>
        <mxCell id="5ZHukqqLrb58eQnSWOvj-362" value="&lt;font style=&quot;font-size: 10px;&quot;&gt;Франчайзи занимается подготовкой и открывает новую точку&lt;/font&gt;" style="points=[[0.25,0,0],[0.5,0,0],[0.75,0,0],[1,0.25,0],[1,0.5,0],[1,0.75,0],[0.75,1,0],[0.5,1,0],[0.25,1,0],[0,0.75,0],[0,0.5,0],[0,0.25,0]];shape=mxgraph.bpmn.task2;whiteSpace=wrap;rectStyle=rounded;size=10;html=1;container=1;expand=0;collapsible=0;taskMarker=user;spacingBottom=-7;" vertex="1" parent="5ZHukqqLrb58eQnSWOvj-2">
          <mxGeometry x="670" y="82.5" width="150" height="60" as="geometry" />
        </mxCell>
        <mxCell id="5ZHukqqLrb58eQnSWOvj-364" style="edgeStyle=orthogonalEdgeStyle;rounded=0;orthogonalLoop=1;jettySize=auto;html=1;exitX=1;exitY=0.5;exitDx=0;exitDy=0;exitPerimeter=0;entryX=0;entryY=0.5;entryDx=0;entryDy=0;entryPerimeter=0;" edge="1" parent="5ZHukqqLrb58eQnSWOvj-2" source="5ZHukqqLrb58eQnSWOvj-328" target="5ZHukqqLrb58eQnSWOvj-362">
          <mxGeometry relative="1" as="geometry" />
        </mxCell>
        <mxCell id="5ZHukqqLrb58eQnSWOvj-368" style="edgeStyle=orthogonalEdgeStyle;rounded=0;orthogonalLoop=1;jettySize=auto;html=1;exitX=1;exitY=0.5;exitDx=0;exitDy=0;exitPerimeter=0;" edge="1" parent="5ZHukqqLrb58eQnSWOvj-2" source="5ZHukqqLrb58eQnSWOvj-365">
          <mxGeometry relative="1" as="geometry">
            <mxPoint x="1050" y="112.88888888888891" as="targetPoint" />
          </mxGeometry>
        </mxCell>
        <mxCell id="5ZHukqqLrb58eQnSWOvj-365" value="&lt;span style=&quot;font-size: 10px;&quot;&gt;Сопровеждение ведения бизнеса первые недели&lt;/span&gt;" style="points=[[0.25,0,0],[0.5,0,0],[0.75,0,0],[1,0.25,0],[1,0.5,0],[1,0.75,0],[0.75,1,0],[0.5,1,0],[0.25,1,0],[0,0.75,0],[0,0.5,0],[0,0.25,0]];shape=mxgraph.bpmn.task2;whiteSpace=wrap;rectStyle=rounded;size=10;html=1;container=1;expand=0;collapsible=0;taskMarker=user;spacingBottom=-7;" vertex="1" parent="5ZHukqqLrb58eQnSWOvj-2">
          <mxGeometry x="870" y="82.5" width="130" height="60" as="geometry" />
        </mxCell>
        <mxCell id="5ZHukqqLrb58eQnSWOvj-367" style="edgeStyle=orthogonalEdgeStyle;rounded=0;orthogonalLoop=1;jettySize=auto;html=1;exitX=1;exitY=0.5;exitDx=0;exitDy=0;exitPerimeter=0;entryX=0;entryY=0.5;entryDx=0;entryDy=0;entryPerimeter=0;" edge="1" parent="5ZHukqqLrb58eQnSWOvj-2" source="5ZHukqqLrb58eQnSWOvj-362" target="5ZHukqqLrb58eQnSWOvj-365">
          <mxGeometry relative="1" as="geometry" />
        </mxCell>
        <mxCell id="5ZHukqqLrb58eQnSWOvj-335" value="Маркетолог" style="swimlane;startSize=20;horizontal=0;html=1;" vertex="1" parent="5ZHukqqLrb58eQnSWOvj-1">
          <mxGeometry y="220" width="1130" height="170" as="geometry" />
        </mxCell>
        <mxCell id="5ZHukqqLrb58eQnSWOvj-6" value="" style="ellipse;whiteSpace=wrap;html=1;aspect=fixed;fillColor=light-dark(#99FF99,var(--ge-dark-color, #121212));" vertex="1" parent="5ZHukqqLrb58eQnSWOvj-335">
          <mxGeometry x="66" y="50" width="30" height="30" as="geometry" />
        </mxCell>
        <mxCell id="5ZHukqqLrb58eQnSWOvj-7" value="" style="endArrow=classic;html=1;rounded=0;exitX=1;exitY=0.5;exitDx=0;exitDy=0;entryX=0;entryY=0.5;entryDx=0;entryDy=0;entryPerimeter=0;" edge="1" parent="5ZHukqqLrb58eQnSWOvj-335" source="5ZHukqqLrb58eQnSWOvj-6" target="5ZHukqqLrb58eQnSWOvj-117">
          <mxGeometry width="50" height="50" relative="1" as="geometry">
            <mxPoint x="326" y="235" as="sourcePoint" />
            <mxPoint x="136" y="65" as="targetPoint" />
          </mxGeometry>
        </mxCell>
        <mxCell id="5ZHukqqLrb58eQnSWOvj-89" value="&lt;font size=&quot;1&quot; face=&quot;Times New Roman&quot;&gt;Анализ рынка, запрос на открытие новой точки&lt;/font&gt;" style="text;html=1;align=center;verticalAlign=middle;whiteSpace=wrap;rounded=0;" vertex="1" parent="5ZHukqqLrb58eQnSWOvj-335">
          <mxGeometry x="26" y="95" width="110" height="35" as="geometry" />
        </mxCell>
        <mxCell id="5ZHukqqLrb58eQnSWOvj-117" value="&lt;font style=&quot;font-size: 10px;&quot;&gt;Анализ рынка и перспектив локации&lt;/font&gt;" style="points=[[0.25,0,0],[0.5,0,0],[0.75,0,0],[1,0.25,0],[1,0.5,0],[1,0.75,0],[0.75,1,0],[0.5,1,0],[0.25,1,0],[0,0.75,0],[0,0.5,0],[0,0.25,0]];shape=mxgraph.bpmn.task2;whiteSpace=wrap;rectStyle=rounded;size=10;html=1;container=1;expand=0;collapsible=0;taskMarker=user;" vertex="1" parent="5ZHukqqLrb58eQnSWOvj-335">
          <mxGeometry x="140" y="35" width="120" height="60" as="geometry" />
        </mxCell>
        <mxCell id="5ZHukqqLrb58eQnSWOvj-344" value="&lt;font style=&quot;font-size: 10px;&quot;&gt;Поиск другой локации&lt;/font&gt;" style="points=[[0.25,0,0],[0.5,0,0],[0.75,0,0],[1,0.25,0],[1,0.5,0],[1,0.75,0],[0.75,1,0],[0.5,1,0],[0.25,1,0],[0,0.75,0],[0,0.5,0],[0,0.25,0]];shape=mxgraph.bpmn.task2;whiteSpace=wrap;rectStyle=rounded;size=10;html=1;container=1;expand=0;collapsible=0;taskMarker=user;spacingBottom=-13;" vertex="1" parent="5ZHukqqLrb58eQnSWOvj-335">
          <mxGeometry x="320" y="45" width="120" height="40" as="geometry" />
        </mxCell>
        <mxCell id="5ZHukqqLrb58eQnSWOvj-349" style="edgeStyle=orthogonalEdgeStyle;rounded=0;orthogonalLoop=1;jettySize=auto;html=1;exitX=0.5;exitY=1;exitDx=0;exitDy=0;exitPerimeter=0;entryX=0.5;entryY=1;entryDx=0;entryDy=0;entryPerimeter=0;" edge="1" parent="5ZHukqqLrb58eQnSWOvj-335" source="5ZHukqqLrb58eQnSWOvj-344" target="5ZHukqqLrb58eQnSWOvj-117">
          <mxGeometry relative="1" as="geometry" />
        </mxCell>
        <mxCell id="5ZHukqqLrb58eQnSWOvj-359" value="&lt;font style=&quot;font-size: 10px;&quot;&gt;Поиск другого франчайзи&lt;/font&gt;" style="points=[[0.25,0,0],[0.5,0,0],[0.75,0,0],[1,0.25,0],[1,0.5,0],[1,0.75,0],[0.75,1,0],[0.5,1,0],[0.25,1,0],[0,0.75,0],[0,0.5,0],[0,0.25,0]];shape=mxgraph.bpmn.task2;whiteSpace=wrap;rectStyle=rounded;size=10;html=1;container=1;expand=0;collapsible=0;taskMarker=user;spacingBottom=-13;" vertex="1" parent="5ZHukqqLrb58eQnSWOvj-335">
          <mxGeometry x="490" y="32.5" width="120" height="65" as="geometry" />
        </mxCell>
        <mxCell id="5ZHukqqLrb58eQnSWOvj-350" style="edgeStyle=orthogonalEdgeStyle;rounded=0;orthogonalLoop=1;jettySize=auto;html=1;exitX=1;exitY=0.5;exitDx=0;exitDy=0;exitPerimeter=0;entryX=0;entryY=0.5;entryDx=0;entryDy=0;entryPerimeter=0;" edge="1" parent="5ZHukqqLrb58eQnSWOvj-1" source="5ZHukqqLrb58eQnSWOvj-117" target="5ZHukqqLrb58eQnSWOvj-338">
          <mxGeometry relative="1" as="geometry" />
        </mxCell>
        <mxCell id="5ZHukqqLrb58eQnSWOvj-351" style="edgeStyle=orthogonalEdgeStyle;rounded=0;orthogonalLoop=1;jettySize=auto;html=1;exitX=0.5;exitY=1;exitDx=0;exitDy=0;exitPerimeter=0;entryX=0.5;entryY=0;entryDx=0;entryDy=0;entryPerimeter=0;" edge="1" parent="5ZHukqqLrb58eQnSWOvj-1" source="5ZHukqqLrb58eQnSWOvj-338" target="5ZHukqqLrb58eQnSWOvj-344">
          <mxGeometry relative="1" as="geometry" />
        </mxCell>
        <mxCell id="5ZHukqqLrb58eQnSWOvj-352" value="нет" style="edgeLabel;html=1;align=center;verticalAlign=middle;resizable=0;points=[];" vertex="1" connectable="0" parent="5ZHukqqLrb58eQnSWOvj-351">
          <mxGeometry x="-0.7723" relative="1" as="geometry">
            <mxPoint as="offset" />
          </mxGeometry>
        </mxCell>
        <mxCell id="5ZHukqqLrb58eQnSWOvj-361" style="edgeStyle=orthogonalEdgeStyle;rounded=0;orthogonalLoop=1;jettySize=auto;html=1;exitX=0.5;exitY=1;exitDx=0;exitDy=0;exitPerimeter=0;entryX=0.75;entryY=0;entryDx=0;entryDy=0;entryPerimeter=0;" edge="1" parent="5ZHukqqLrb58eQnSWOvj-1" source="5ZHukqqLrb58eQnSWOvj-358" target="5ZHukqqLrb58eQnSWOvj-359">
          <mxGeometry relative="1" as="geometry" />
        </mxCell>
        <mxCell id="5ZHukqqLrb58eQnSWOvj-296" value="&lt;span style=&quot;font-size: 10px;&quot;&gt;База данных по партнерам&lt;/span&gt;" style="text;html=1;align=center;verticalAlign=middle;whiteSpace=wrap;rounded=0;" vertex="1" parent="1">
          <mxGeometry x="1030" y="540" width="90" height="30" as="geometry" />
        </mxCell>
        <mxCell id="5ZHukqqLrb58eQnSWOvj-297" value="" style="shape=datastore;html=1;labelPosition=center;verticalLabelPosition=bottom;align=center;verticalAlign=top;" vertex="1" parent="1">
          <mxGeometry x="1052.5" y="480" width="45" height="50" as="geometry" />
        </mxCell>
        <mxCell id="5ZHukqqLrb58eQnSWOvj-322" style="edgeStyle=orthogonalEdgeStyle;rounded=0;orthogonalLoop=1;jettySize=auto;html=1;exitX=0.5;exitY=1;exitDx=0;exitDy=0;exitPerimeter=0;entryX=0.5;entryY=0;entryDx=0;entryDy=0;endArrow=none;startFill=0;dashed=1;dashPattern=1 4;" edge="1" parent="1" source="5ZHukqqLrb58eQnSWOvj-365" target="5ZHukqqLrb58eQnSWOvj-297">
          <mxGeometry relative="1" as="geometry">
            <mxPoint x="1075" y="400" as="sourcePoint" />
          </mxGeometry>
        </mxCell>
        <mxCell id="5ZHukqqLrb58eQnSWOvj-326" value="&lt;span style=&quot;font-size: 10px;&quot;&gt;BP004 и BP005&lt;/span&gt;" style="html=1;whiteSpace=wrap;" vertex="1" parent="1">
          <mxGeometry x="280" y="-5" width="120" height="50" as="geometry" />
        </mxCell>
        <mxCell id="5ZHukqqLrb58eQnSWOvj-357" style="edgeStyle=orthogonalEdgeStyle;rounded=0;orthogonalLoop=1;jettySize=auto;html=1;exitX=0.5;exitY=1;exitDx=0;exitDy=0;entryX=0.5;entryY=0;entryDx=0;entryDy=0;entryPerimeter=0;endArrow=none;startFill=0;dashed=1;dashPattern=1 4;" edge="1" parent="1" source="5ZHukqqLrb58eQnSWOvj-326" target="5ZHukqqLrb58eQnSWOvj-117">
          <mxGeometry relative="1" as="geometry" />
        </mxCell>
      </root>
    </mxGraphModel>
  </diagram>
</mxfile>
